# xmcd
#
# Track frame offsets:
#   150
#   6410
#   26282
#   45435
#   63182
#   84947
#   101542
#   120267
#   137790
#   154435
#   174092
#   190487
#   211960
#   231915
#   250475
#   265852
#   284390
#   301485
#
# Disc length: 4267 seconds
#
# Revision: 0
# Processed by: cddbd v1.5.2PL0 Copyright (c) Steve Scherf et al.
# Submitted via: GXTranscoder 2.0.1939
#
DISCID=ef10a912
DTITLE=Marco Polo - Port authority
DYEAR=2007
DGENRE=Rap
TTITLE0=Port authority intro
TTITLE1=Get busy feat Copywrite
TTITLE2=Marquee feat OC
TTITLE3=War feat kardinal offishal
TTITLE4=Nostalgia feat Masta Ace
TTITLE5=Wrong one feat Wordsworth
TTITLE6=Low budget allstars feat Kev Brown, Kenn Starr, Od
TTITLE7=Speak softly feat Jo Jo Pellegrino
TTITLE8=Time and place feat ED o.g.
TTITLE9=The radar feat Large Professor
TTITLE10=All my love feat Jaysaun
TTITLE11=Lay it down feat Roc Marciano
TTITLE12=Go around feat Buckshot
TTITLE13=Hood tales feat Kool G Rap and D.V. Alias Khrist
TTITLE14=Heat feat Supastition
TTITLE15=Rollin feat Sadat X, Beatnuts and AG
TTITLE16=For the future feat Critically Acclaimed
TTITLE17=Relax feat J*Dacey
EXTD=
EXTT0=
EXTT1=
EXTT2=
EXTT3=
EXTT4=
EXTT5=
EXTT6=
EXTT7=
EXTT8=
EXTT9=
EXTT10=
EXTT11=
EXTT12=
EXTT13=
EXTT14=
EXTT15=
EXTT16=
EXTT17=
PLAYORDER=
